<?xml version="1.0" encoding="UTF-8"?>
<!-- reset.css v1.0.1 | MIT License | github.com/drone076/reset.css -->
<svg width="752pt" height="752pt" version="1.1" viewBox="0 0 752 752" xmlns="http://www.w3.org/2000/svg">
 <circle cx="376" cy="376" r="300" fill="#23424A"/>
 <path fill="#38cfd9" d="m250.1 257.38-1.6406-1.1289-2.1328 3.082v-41.844c0-8.3203-6.7617-15.066-15.102-15.066h-21.137c-8.3398 0-15.102 6.7461-15.102 15.066v123.53c0 8.3203 6.7617 15.066 15.102 15.066h123.82c8.3398 0 15.102-6.7461 15.102-15.066v-21.09c0-8.3203-6.7617-15.066-15.102-15.066h-45.57c11.258-12.992 26.438-25.238 38.586-31.445 6.0391-3.0156 12.082-6.0273 17.742-7.9102 5.6641-2.2617 11.703-3.7656 17.742-4.8984 7.5508-1.5039 17.367-2.2578 25.293-2.2578 70.215 0 129.1 58 129.1 129.18 0 1.1289-0.75391 12.426-1.5078 18.453-3.3984 21.844-12.457 45.57-31.711 68.168-13.969 16.195-41.902 35.027-67.57 39.922-17.367 3.3906-26.047 16.949-26.047 30.133 0 15.816 12.078 30.129 29.82 30.129 6.7969 0 18.875-3.7656 24.914-5.6484 27.559-8.6641 55.492-23.352 82.293-52.352 23.406-25.609 35.863-51.977 43.035-77.961 3.3984-12.055 5.2852-25.988 6.7969-38.039v-24.859c0-13.18-6.7969-40.676-10.57-50.465-33.598-91.145-112.49-126.93-178.55-126.93-12.457 0-25.293 0.75391-36.996 3.3906-9.0586 1.8828-18.117 4.5195-27.176 7.5312-24.137 8.5547-50.41 24.301-73.426 48.367z"/>
</svg>
